<?xml version="1.0" encoding="UTF-8"?>
<svg id="Layer_2" data-name="Layer 2" xmlns="http://www.w3.org/2000/svg" xmlns:xlink="http://www.w3.org/1999/xlink" viewBox="0 0 124.12 27.58">
  <defs>
    <style>
      .cls-1 {
        fill: url(#linear-gradient-5);
      }

      .cls-2 {
        fill: url(#linear-gradient-4);
      }

      .cls-3 {
        fill: url(#linear-gradient-3);
      }

      .cls-4 {
        fill: url(#linear-gradient-2);
      }

      .cls-5 {
        fill: url(#linear-gradient);
      }

      .cls-6 {
        fill: #fff;
      }
    </style>
    <linearGradient id="linear-gradient" x1="8.39" y1="21.38" x2="8.39" y2="0" gradientUnits="userSpaceOnUse">
      <stop offset="0" stop-color="#dd8300"/>
      <stop offset="1" stop-color="#dd5200"/>
    </linearGradient>
    <linearGradient id="linear-gradient-2" x1="27.28" y1="21.66" x2="27.28" y2="4.55" xlink:href="#linear-gradient"/>
    <linearGradient id="linear-gradient-3" x1="44.86" x2="44.86" y2="4.55" xlink:href="#linear-gradient"/>
    <linearGradient id="linear-gradient-4" x1="61.02" y1="27.58" x2="61.02" y2="4.55" xlink:href="#linear-gradient"/>
    <linearGradient id="linear-gradient-5" x1="82.11" y1="21.66" x2="82.11" y2="4.55" xlink:href="#linear-gradient"/>
  </defs>
  <g id="Layer_1-2" data-name="Layer 1">
    <g>
      <path class="cls-5" d="M6.05,4.67v4.7h9.44v4.67H6.05v7.33H0V0h16.77v4.67H6.05Z"/>
      <path class="cls-4" d="M17.93,13.07c0-4.98,3.94-8.52,9.35-8.52s9.35,3.54,9.35,8.52-3.88,8.58-9.35,8.58-9.35-3.57-9.35-8.58ZM30.76,13.07c0-2.5-1.5-3.91-3.48-3.91s-3.48,1.41-3.48,3.91,1.53,3.97,3.48,3.97,3.48-1.44,3.48-3.97Z"/>
      <path class="cls-3" d="M50.4,4.55v5.22c-.52-.06-.89-.09-1.31-.09-2.35,0-3.97,1.19-3.97,4.09v7.61h-5.8V4.83h5.53v1.99c1.19-1.5,3.12-2.26,5.56-2.26Z"/>
      <path class="cls-2" d="M70.44,4.83v13.53c0,6.26-3.54,9.23-9.71,9.23-3.18,0-6.2-.73-8.22-2.17l2.11-4.06c1.37,1.1,3.64,1.77,5.59,1.77,3.12,0,4.43-1.41,4.43-4v-.55c-1.13,1.31-2.81,1.96-4.92,1.96-4.4,0-8.13-3.12-8.13-8s3.73-7.97,8.13-7.97c2.29,0,4.06.73,5.19,2.29v-2.02h5.53ZM64.7,12.52c0-2.02-1.53-3.36-3.6-3.36s-3.64,1.34-3.64,3.36,1.56,3.39,3.64,3.39,3.6-1.37,3.6-3.39Z"/>
      <path class="cls-1" d="M91,14.57h-12.04c.49,1.68,1.92,2.66,4.06,2.66,1.62,0,2.69-.46,3.82-1.44l3.05,3.18c-1.59,1.77-3.91,2.69-7.06,2.69-5.9,0-9.71-3.63-9.71-8.58s3.88-8.52,9.1-8.52c4.89,0,8.86,3.12,8.86,8.58,0,.43-.06.98-.09,1.44ZM78.88,11.52h6.78c-.31-1.74-1.59-2.84-3.39-2.84s-3.05,1.1-3.39,2.84Z"/>
      <path class="cls-6" d="M108.39,17.23h-9.04l-1.68,4.15h-6.17L100.93,0h5.96l9.47,21.38h-6.29l-1.68-4.15ZM106.61,12.77l-2.75-6.84-2.75,6.84h5.5Z"/>
      <path class="cls-6" d="M118.07,0h6.05v21.38h-6.05V0Z"/>
    </g>
  </g>
</svg>